<svg width="48" height="49" viewBox="0 0 48 49" fill="none" xmlns="http://www.w3.org/2000/svg">
<rect y="0.76001" width="48" height="48" rx="6" fill="#9F0132"/>
<g clip-path="url(#clip0_580_8562)">
<path d="M26.9802 22.0724C26.9802 21.3095 26.7939 20.5997 26.4213 19.9432C26.0309 19.2866 25.5075 18.7632 24.8509 18.3728C24.1767 18.0002 23.4669 17.8139 22.7217 17.8139C21.9764 17.8139 21.2667 18.0002 20.5924 18.3728C19.9359 18.7632 19.4124 19.2866 19.022 19.9432C18.6494 20.5997 18.4631 21.3095 18.4631 22.0724C18.4631 22.8354 18.6494 23.5452 19.022 24.2017C19.4124 24.8582 19.9359 25.3817 20.5924 25.7721C21.2667 26.1447 21.9764 26.331 22.7217 26.331C23.4669 26.331 24.1767 26.1447 24.8509 25.7721C25.5075 25.3817 26.0309 24.8582 26.4213 24.2017C26.7939 23.5452 26.9802 22.8354 26.9802 22.0724ZM26.1551 26.4108C25.197 27.1916 24.0525 27.5908 22.7217 27.6086C21.1602 27.5731 19.856 27.0319 18.8091 25.985C17.7622 24.9381 17.221 23.6339 17.1855 22.0724C17.221 20.511 17.7622 19.2068 18.8091 18.1599C19.856 17.113 21.1602 16.5718 22.7217 16.5363C24.2831 16.5718 25.5873 17.113 26.6342 18.1599C27.6811 19.2068 28.2223 20.511 28.2578 22.0724C28.24 23.4032 27.8408 24.5477 27.0601 25.5059L30.6266 29.0724C30.875 29.3741 30.875 29.6757 30.6266 29.9774C30.325 30.2258 30.0233 30.2258 29.7217 29.9774L26.1551 26.4108Z" fill="white"/>
</g>
<defs>
<clipPath id="clip0_580_8562">
<rect width="14" height="14" fill="white" transform="matrix(1 0 0 -1 17 30.35)"/>
</clipPath>
</defs>
</svg>
