<svg width="49" height="49" viewBox="0 0 49 49" fill="none" xmlns="http://www.w3.org/2000/svg">
<rect x="0.328125" y="0.470001" width="48" height="48" rx="6" fill="#9F0132"/>
<g clip-path="url(#clip0_580_8892)">
<path d="M27.3103 21.7824C27.3103 21.0194 27.124 20.3097 26.7514 19.6532C26.361 18.9966 25.8376 18.4732 25.181 18.0828C24.5068 17.7102 23.797 17.5239 23.0517 17.5239C22.3065 17.5239 21.5967 17.7102 20.9225 18.0828C20.2659 18.4732 19.7425 18.9966 19.3521 19.6532C18.9795 20.3097 18.7932 21.0194 18.7932 21.7824C18.7932 22.5454 18.9795 23.2552 19.3521 23.9117C19.7425 24.5682 20.2659 25.0917 20.9225 25.4821C21.5967 25.8547 22.3065 26.041 23.0517 26.041C23.797 26.041 24.5068 25.8547 25.181 25.4821C25.8376 25.0917 26.361 24.5682 26.7514 23.9117C27.124 23.2552 27.3103 22.5454 27.3103 21.7824ZM26.4852 26.1208C25.527 26.9016 24.3825 27.3008 23.0517 27.3186C21.4903 27.2831 20.1861 26.7419 19.1392 25.695C18.0923 24.6481 17.5511 23.3439 17.5156 21.7824C17.5511 20.221 18.0923 18.9168 19.1392 17.8699C20.1861 16.823 21.4903 16.2818 23.0517 16.2463C24.6132 16.2818 25.9174 16.823 26.9643 17.8699C28.0112 18.9168 28.5524 20.221 28.5879 21.7824C28.5701 23.1132 28.1709 24.2577 27.3901 25.2159L30.9567 28.7824C31.2051 29.0841 31.2051 29.3857 30.9567 29.6874C30.655 29.9358 30.3534 29.9358 30.0517 29.6874L26.4852 26.1208Z" fill="white"/>
</g>
<defs>
<clipPath id="clip0_580_8892">
<rect width="14" height="14" fill="white" transform="matrix(1 0 0 -1 17.3281 30.06)"/>
</clipPath>
</defs>
</svg>
