<svg width="25" height="25" viewBox="0 0 25 25" fill="none" xmlns="http://www.w3.org/2000/svg">
<g clip-path="url(#clip0_580_8907)">
<path d="M9.38317 3.05999H15.9286C16.1407 3.09029 16.262 3.2115 16.2923 3.42362V5.2418H9.01953V3.42362C9.04983 3.2115 9.17105 3.09029 9.38317 3.05999ZM6.83771 3.42362V5.2418H3.92862C3.11044 5.27211 2.42862 5.55999 1.88317 6.10544C1.33771 6.6509 1.04983 7.33271 1.01953 8.1509V19.7873C1.04983 20.6054 1.33771 21.2873 1.88317 21.8327C2.42862 22.3782 3.11044 22.666 3.92862 22.6964H21.3832C22.2014 22.666 22.8832 22.3782 23.4286 21.8327C23.9741 21.2873 24.262 20.6054 24.2923 19.7873V8.1509C24.262 7.33271 23.9741 6.6509 23.4286 6.10544C22.8832 5.55999 22.2014 5.27211 21.3832 5.2418H18.4741V3.42362C18.4438 2.69635 18.2013 2.09029 17.7468 1.60544C17.262 1.15089 16.6559 0.908471 15.9286 0.878168H9.38317C8.6559 0.908471 8.04983 1.15089 7.56499 1.60544C7.11044 2.09029 6.86802 2.69635 6.83771 3.42362ZM14.5195 9.55999L18.1559 13.1963C18.5801 13.7115 18.5801 14.2267 18.1559 14.7418L14.5195 18.3782C14.0044 18.8024 13.4892 18.8024 12.9741 18.3782C12.5498 17.863 12.5498 17.3479 12.9741 16.8327L14.7468 15.06H7.92862C7.26196 14.9994 6.89832 14.6357 6.83771 13.9691C6.89832 13.3024 7.26196 12.9388 7.92862 12.8782H14.7468L12.9741 11.1054C12.5498 10.5903 12.5498 10.0751 12.9741 9.55999C13.4892 9.13574 14.0044 9.13574 14.5195 9.55999Z" fill="#9F0132"/>
</g>
<defs>
<clipPath id="clip0_580_8907">
<rect width="24" height="24" fill="white" transform="matrix(1 0 0 -1 0.65625 24.56)"/>
</clipPath>
</defs>
</svg>
