<svg width="25" height="25" viewBox="0 0 25 25" fill="none" xmlns="http://www.w3.org/2000/svg">
<g clip-path="url(#clip0_580_8942)">
<path d="M9.057 2.54992H15.6025C15.8146 2.58022 15.9358 2.70143 15.9661 2.91355V4.73173H8.69336V2.91355C8.72366 2.70143 8.84487 2.58022 9.057 2.54992ZM6.51154 2.91355V4.73173H3.60245C2.78427 4.76204 2.10245 5.04992 1.557 5.59537C1.01154 6.14082 0.723662 6.82264 0.693359 7.64082V19.2772C0.723662 20.0954 1.01154 20.7772 1.557 21.3226C2.10245 21.8681 2.78427 22.156 3.60245 22.1863H21.057C21.8752 22.156 22.557 21.8681 23.1025 21.3226C23.6479 20.7772 23.9358 20.0954 23.9661 19.2772V7.64082C23.9358 6.82264 23.6479 6.14082 23.1025 5.59537C22.557 5.04992 21.8752 4.76204 21.057 4.73173H18.1479V2.91355C18.1176 2.18628 17.8752 1.58022 17.4206 1.09537C16.9358 0.640824 16.3297 0.3984 15.6025 0.368097H9.057C8.32972 0.3984 7.72366 0.640824 7.23881 1.09537C6.78427 1.58022 6.54184 2.18628 6.51154 2.91355ZM14.1934 9.04992L17.8297 12.6863C18.254 13.2014 18.254 13.7166 17.8297 14.2317L14.1934 17.8681C13.6782 18.2923 13.1631 18.2923 12.6479 17.8681C12.2237 17.3529 12.2237 16.8378 12.6479 16.3226L14.4206 14.5499H7.60245C6.93578 14.4893 6.57215 14.1257 6.51154 13.459C6.57215 12.7923 6.93578 12.4287 7.60245 12.3681H14.4206L12.6479 10.5954C12.2237 10.0802 12.2237 9.56507 12.6479 9.04992C13.1631 8.62567 13.6782 8.62567 14.1934 9.04992Z" fill="#9F0132"/>
</g>
<defs>
<clipPath id="clip0_580_8942">
<rect width="24" height="24" fill="white" transform="matrix(1 0 0 -1 0.330078 24.0499)"/>
</clipPath>
</defs>
</svg>
