<svg width="25" height="25" viewBox="0 0 25 25" fill="none" xmlns="http://www.w3.org/2000/svg">
<g clip-path="url(#clip0_580_8956)">
<path d="M9.70739 2.54992H16.2528C16.465 2.58022 16.5862 2.70143 16.6165 2.91355V4.73173H9.34375V2.91355C9.37405 2.70143 9.49527 2.58022 9.70739 2.54992ZM7.16193 2.91355V4.73173H4.25284C3.43466 4.76204 2.75284 5.04992 2.20739 5.59537C1.66193 6.14082 1.37405 6.82264 1.34375 7.64082V19.2772C1.37405 20.0954 1.66193 20.7772 2.20739 21.3226C2.75284 21.8681 3.43466 22.156 4.25284 22.1863H21.7074C22.5256 22.156 23.2074 21.8681 23.7528 21.3226C24.2983 20.7772 24.5862 20.0954 24.6165 19.2772V7.64082C24.5862 6.82264 24.2983 6.14082 23.7528 5.59537C23.2074 5.04992 22.5256 4.76204 21.7074 4.73173H18.7983V2.91355C18.768 2.18628 18.5256 1.58022 18.071 1.09537C17.5862 0.640824 16.9801 0.3984 16.2528 0.368097H9.70739C8.98011 0.3984 8.37405 0.640824 7.8892 1.09537C7.43466 1.58022 7.19224 2.18628 7.16193 2.91355ZM14.8438 9.04992L18.4801 12.6863C18.9044 13.2014 18.9044 13.7166 18.4801 14.2317L14.8438 17.8681C14.3286 18.2923 13.8134 18.2923 13.2983 17.8681C12.8741 17.3529 12.8741 16.8378 13.2983 16.3226L15.071 14.5499H8.25284C7.58617 14.4893 7.22254 14.1257 7.16193 13.459C7.22254 12.7923 7.58617 12.4287 8.25284 12.3681H15.071L13.2983 10.5954C12.8741 10.0802 12.8741 9.56507 13.2983 9.04992C13.8134 8.62567 14.3286 8.62567 14.8438 9.04992Z" fill="#9F0132"/>
</g>
<defs>
<clipPath id="clip0_580_8956">
<rect width="24" height="24" fill="white" transform="matrix(1 0 0 -1 0.980469 24.0499)"/>
</clipPath>
</defs>
</svg>
