<svg width="17" height="17" viewBox="0 0 17 17" fill="none" xmlns="http://www.w3.org/2000/svg">
<g clip-path="url(#clip0_580_9415)">
<path d="M9.77075 1.86375V0.875331H7.79392V1.86375V9.36954L5.53909 7.08383L4.82867 6.40429L3.43871 7.79425L4.11824 8.50467L8.07191 12.4583L8.78234 13.1379L9.49276 12.4583L13.4464 8.50467L14.126 7.79425L12.736 6.40429L12.0256 7.08383L9.77075 9.36954V1.86375ZM0.875 16.69H16.6897V11.7479H11.5931L10.1723 13.1379L8.78234 14.5587L7.39237 13.1379L6.00241 11.7479H0.875V16.69ZM14.2186 13.4776C14.6717 13.5188 14.9188 13.7659 14.9599 14.219C14.9188 14.672 14.6717 14.9191 14.2186 14.9603C13.7656 14.9191 13.5185 14.672 13.4773 14.219C13.5185 13.7659 13.7656 13.5188 14.2186 13.4776Z" fill="white"/>
</g>
<defs>
<clipPath id="clip0_580_9415">
<rect width="16" height="16" fill="white" transform="matrix(1 0 0 -1 0.78125 16.69)"/>
</clipPath>
</defs>
</svg>
