<svg width="25" height="25" viewBox="0 0 25 25" fill="none" xmlns="http://www.w3.org/2000/svg">
<g clip-path="url(#clip0_580_8914)">
<path d="M9.70739 3.05999H16.2528C16.465 3.09029 16.5862 3.2115 16.6165 3.42362V5.2418H9.34375V3.42362C9.37405 3.2115 9.49527 3.09029 9.70739 3.05999ZM7.16193 3.42362V5.2418H4.25284C3.43466 5.27211 2.75284 5.55999 2.20739 6.10544C1.66193 6.6509 1.37405 7.33271 1.34375 8.1509V19.7873C1.37405 20.6054 1.66193 21.2873 2.20739 21.8327C2.75284 22.3782 3.43466 22.666 4.25284 22.6964H21.7074C22.5256 22.666 23.2074 22.3782 23.7528 21.8327C24.2983 21.2873 24.5862 20.6054 24.6165 19.7873V8.1509C24.5862 7.33271 24.2983 6.6509 23.7528 6.10544C23.2074 5.55999 22.5256 5.27211 21.7074 5.2418H18.7983V3.42362C18.768 2.69635 18.5256 2.09029 18.071 1.60544C17.5862 1.15089 16.9801 0.908471 16.2528 0.878168H9.70739C8.98011 0.908471 8.37405 1.15089 7.8892 1.60544C7.43466 2.09029 7.19224 2.69635 7.16193 3.42362ZM14.8438 9.55999L18.4801 13.1963C18.9044 13.7115 18.9044 14.2267 18.4801 14.7418L14.8438 18.3782C14.3286 18.8024 13.8134 18.8024 13.2983 18.3782C12.8741 17.863 12.8741 17.3479 13.2983 16.8327L15.071 15.06H8.25284C7.58617 14.9994 7.22254 14.6357 7.16193 13.9691C7.22254 13.3024 7.58617 12.9388 8.25284 12.8782H15.071L13.2983 11.1054C12.8741 10.5903 12.8741 10.0751 13.2983 9.55999C13.8134 9.13574 14.3286 9.13574 14.8438 9.55999Z" fill="#9F0132"/>
</g>
<defs>
<clipPath id="clip0_580_8914">
<rect width="24" height="24" fill="white" transform="matrix(1 0 0 -1 0.980469 24.56)"/>
</clipPath>
</defs>
</svg>
