<svg width="83" height="48" viewBox="0 0 83 48" fill="none" xmlns="http://www.w3.org/2000/svg">
<path fill-rule="evenodd" clip-rule="evenodd" d="M11.3077 10.9694L22.2962 21.9365L22.4633 17.0397L22.6305 12.1429L41.2594 12.1568C51.7071 12.1649 61.0028 12.428 62.4261 12.7565C70.9225 14.7148 77.6422 20.6884 80.745 29.0414C81.7756 31.8169 82.1012 32.2917 82.1244 31.0529C82.1914 27.4475 80.3049 21.3981 77.9938 17.8095C75.0223 13.1943 67.7804 6.08362 63.4376 3.51694C57.6016 0.0677172 56.8769 -0.00226696 27.2306 4.64035e-05L0.319245 0.00235849L11.3077 10.9694ZM0.217456 18.6515C0.549423 25.5014 3.22367 30.4798 10.3928 37.5962C13.4938 40.6747 17.297 43.8244 19.0286 44.7486C24.9537 47.9115 25.7847 47.9855 55.2558 47.9931L82.4326 48L71.166 36.7224C64.9696 30.5197 59.6946 25.4447 59.4442 25.4447C59.1932 25.4447 59.148 26.6205 59.3429 28.0582C59.5378 29.4954 59.5222 31.7076 59.3082 32.9741L58.919 35.2765H40.5237C23.8739 35.2765 21.7803 35.1689 18.4531 34.1406C10.2488 31.6052 4.62731 26.2185 1.39322 17.795L0 14.1671L0.217456 18.6515Z" fill="white"/>
</svg>
