<svg width="71" height="42" viewBox="0 0 71 42" fill="none" xmlns="http://www.w3.org/2000/svg">
<path fill-rule="evenodd" clip-rule="evenodd" d="M9.92107 10.2238L19.3191 19.6035L19.4621 15.4155L19.605 11.2274L35.5376 11.2393C44.4732 11.2462 52.4234 11.4713 53.6407 11.7522C60.9074 13.427 66.6545 18.5361 69.3082 25.6801C70.1897 28.0538 70.4681 28.4599 70.4879 27.4004C70.5453 24.3169 68.9318 19.143 66.9553 16.0738C64.4138 12.1266 58.22 6.04513 54.5058 3.84995C49.5145 0.899957 48.8947 0.840102 23.5393 0.842081L0.523039 0.844058L9.92107 10.2238ZM0.435982 16.794C0.719901 22.6524 3.00709 26.9103 9.13856 32.9967C11.7908 35.6296 15.0435 38.3234 16.5244 39.1138C21.5919 41.819 22.3027 41.8823 47.5083 41.8887L70.7516 41.8947L61.1156 32.2493C55.8161 26.9444 51.3046 22.604 51.0904 22.604C50.8757 22.604 50.8371 23.6096 51.0038 24.8392C51.1705 26.0684 51.1572 27.9604 50.9742 29.0436L50.6413 31.0127H34.9085C20.6685 31.0127 18.8779 30.9207 16.0323 30.0413C9.0154 27.8728 4.20756 23.2658 1.44157 16.0615L0.25 12.9586L0.435982 16.794Z" fill="white"/>
</svg>
